<?xml version="1.0" encoding="utf-8"?>
<!-- Generator: Adobe Illustrator 24.0.3, SVG Export Plug-In . SVG Version: 6.00 Build 0)  -->
<svg version="1.1" id="Ebene_1" xmlns="http://www.w3.org/2000/svg" xmlns:xlink="http://www.w3.org/1999/xlink" x="0px" y="0px"
	 viewBox="0 0 600 600" style="enable-background:new 0 0 600 600;" xml:space="preserve">
<style type="text/css">
	.st0{opacity:8.000000e-02;fill:#848484;}
	.st1{opacity:0.12;}
	.st2{enable-background:new    ;}
	.st3{fill:#010101;}
	.st4{fill:#111111;}
	.st5{clip-path:url(#SVGID_2_);enable-background:new    ;}
	.st6{clip-path:url(#SVGID_4_);enable-background:new    ;}
	.st7{fill:#151515;}
	.st8{clip-path:url(#SVGID_6_);enable-background:new    ;}
	.st9{fill:#0B0B0B;}
	.st10{clip-path:url(#SVGID_8_);enable-background:new    ;}
	.st11{clip-path:url(#SVGID_10_);enable-background:new    ;}
	.st12{clip-path:url(#SVGID_12_);enable-background:new    ;}
	.st13{clip-path:url(#SVGID_14_);enable-background:new    ;}
	.st14{clip-path:url(#SVGID_16_);enable-background:new    ;}
	.st15{fill:#FFFFFF;stroke:#000000;stroke-width:3.0581;stroke-miterlimit:10;}
</style>
<rect class="st0" width="600" height="600"/>
<g class="st1">
	<g class="st2">
		<path class="st3" d="M402.2,236.4c0.2-0.6,0.5-1.2,0.7-1.8l1.2-2.9c0.3-0.8,0.7-1.6,1-2.4l1.4-3.5c0.3-0.9,0.7-1.7,1-2.6l1.2-2.9
			c1.7-4.2,3.4-8.3,5-12.4l2.5-6.1c2-4.8,3.8-9.4,5.6-13.8c2.9-7.2,4.2-14.2,3.7-21.4c-0.5-8.5-1.6-15.4-3.2-21.1
			c-3.3-11.3-9.4-24.3-18.9-39.5c-9.5-15.2-22.9-31.2-40.8-47.1c-0.6-0.5-1.2-1.1-1.8-1.6c-0.2-0.2-0.4-0.3-0.6-0.5
			c-0.4-0.4-0.8-0.7-1.2-1c-0.2-0.2-0.4-0.4-0.7-0.6c-0.4-0.3-0.7-0.6-1.1-1c-0.2-0.2-0.5-0.4-0.7-0.6c-0.4-0.3-0.7-0.6-1.1-0.9
			c-0.2-0.2-0.4-0.4-0.7-0.6c-0.4-0.3-0.8-0.7-1.2-1c-0.2-0.2-0.4-0.3-0.6-0.5c-0.6-0.5-1.2-1-1.8-1.4c-0.1,0-0.1-0.1-0.2-0.1
			c-0.5-0.4-1.1-0.9-1.6-1.3c-0.2-0.2-0.4-0.3-0.6-0.5c-0.4-0.3-0.8-0.6-1.2-0.9c-0.2-0.2-0.5-0.3-0.7-0.5c-0.4-0.3-0.7-0.6-1.1-0.8
			c-0.2-0.2-0.5-0.3-0.7-0.5c-0.4-0.3-0.7-0.6-1.1-0.8c-0.2-0.2-0.4-0.3-0.7-0.5c-0.4-0.3-0.8-0.6-1.2-0.9c-0.2-0.1-0.4-0.3-0.5-0.4
			c-0.6-0.4-1.2-0.8-1.8-1.2c-0.1-0.1-0.2-0.1-0.3-0.2c-0.5-0.3-1-0.7-1.5-1c-0.2-0.1-0.4-0.3-0.6-0.4c-0.4-0.3-0.8-0.5-1.2-0.8
			c-0.2-0.1-0.5-0.3-0.7-0.4c-0.4-0.2-0.7-0.5-1.1-0.7c-0.2-0.1-0.5-0.3-0.7-0.4c-0.4-0.2-0.7-0.5-1.1-0.7c-0.2-0.1-0.4-0.3-0.7-0.4
			c-0.4-0.3-0.8-0.5-1.3-0.8c-0.2-0.1-0.3-0.2-0.5-0.3c-0.6-0.4-1.2-0.7-1.8-1.1c-0.1-0.1-0.2-0.1-0.3-0.2c-0.5-0.3-1-0.6-1.4-0.8
			c-0.2-0.1-0.4-0.2-0.6-0.3c-0.4-0.2-0.8-0.4-1.2-0.6c-0.2-0.1-0.5-0.2-0.7-0.4c-0.4-0.2-0.7-0.4-1.1-0.6c-0.2-0.1-0.5-0.2-0.7-0.4
			c-0.4-0.2-0.7-0.4-1.1-0.6c-0.2-0.1-0.4-0.2-0.7-0.3c-0.4-0.2-0.9-0.4-1.3-0.6c-0.2-0.1-0.3-0.2-0.5-0.2c-0.6-0.3-1.2-0.6-1.8-0.8
			c-0.1-0.1-0.3-0.1-0.4-0.2c-0.5-0.2-0.9-0.4-1.4-0.6c-0.2-0.1-0.4-0.2-0.6-0.3c-0.4-0.2-0.8-0.3-1.1-0.5c-0.2-0.1-0.5-0.2-0.7-0.3
			c-0.4-0.2-0.7-0.3-1.1-0.5c-0.2-0.1-0.5-0.2-0.7-0.3c-0.1-0.1-0.3-0.1-0.4-0.2c-0.2-0.1-0.5-0.2-0.7-0.3c-0.2-0.1-0.4-0.2-0.7-0.3
			c-0.4-0.2-0.9-0.3-1.3-0.5c-0.2-0.1-0.3-0.1-0.5-0.2c-0.6-0.2-1.2-0.4-1.8-0.6c-0.1,0-0.2-0.1-0.4-0.1c-0.4-0.1-0.8-0.3-1.2-0.4
			c-0.1,0-0.1,0-0.2-0.1c-0.7-0.2-1.4-0.4-2.1-0.7c-0.9-0.3-1.9-0.6-2.8-0.8c-0.3-0.1-0.6-0.2-0.9-0.3c-0.5-0.1-0.9-0.3-1.4-0.4
			c-0.1,0-0.3-0.1-0.4-0.1c-1.2-0.3-2.4-0.7-3.7-1c0,0-0.1,0-0.1,0c-1.2-0.3-2.4-0.6-3.6-0.9c-0.1,0-0.3-0.1-0.4-0.1
			c-0.3-0.1-0.6-0.1-0.8-0.2c-0.7-0.2-1.4-0.3-2.2-0.5c-0.5-0.1-0.9-0.2-1.4-0.3c-0.7-0.1-1.5-0.3-2.2-0.4c-0.3-0.1-0.6-0.1-0.9-0.2
			c-0.2,0-0.4-0.1-0.5-0.1c-0.6-0.1-1.2-0.2-1.8-0.3c-0.5-0.1-1-0.2-1.5-0.3c-0.6-0.1-1.3-0.2-1.9-0.3c-0.4-0.1-0.7-0.1-1.1-0.2
			c-0.1,0-0.3,0-0.4-0.1c-0.5-0.1-1-0.1-1.6-0.2c-0.6-0.1-1.1-0.2-1.7-0.2c-0.5-0.1-1-0.1-1.6-0.2c-0.4,0-0.8-0.1-1.3-0.1
			c-0.2,0-0.3,0-0.5,0c-0.5,0-0.9-0.1-1.4-0.1c-0.6-0.1-1.2-0.1-1.8-0.2c-0.5,0-1-0.1-1.4-0.1c-0.4,0-0.7-0.1-1.1-0.1
			c-0.3,0-0.5,0-0.8,0c-0.4,0-0.9-0.1-1.3-0.1c-0.6,0-1.3-0.1-1.9-0.1c-0.4,0-0.9,0-1.3-0.1c-0.2,0-0.5,0-0.7,0c-0.5,0-1,0-1.4,0
			c-0.3,0-0.7,0-1,0c-1.1,0-2.1,0-3.2,0c-0.1,0-0.2,0-0.3,0c-1,0-2,0-3,0c-0.1,0-0.3,0-0.4,0c-0.8,0-1.7,0-2.5,0.1
			c-0.1,0-0.2,0-0.3,0c-0.3,0-0.7,0-1,0c-0.7,0-1.4,0.1-2.1,0.1c-0.4,0-0.8,0.1-1.2,0.1c-0.4,0-0.8,0-1.2,0.1
			c-0.5,0-0.9,0.1-1.4,0.1c-1.2,0.1-2.3,0.2-3.5,0.3c0,0,0,0,0,0c0,0,0,0-0.1,0c-1,0.1-2,0.2-3,0.4c-0.3,0-0.5,0.1-0.8,0.1
			c-0.3,0-0.6,0.1-0.9,0.1c-0.6,0.1-1.1,0.2-1.7,0.3c-0.2,0-0.4,0.1-0.6,0.1c-0.9,0.2-1.8,0.3-2.7,0.5c-0.2,0-0.4,0.1-0.6,0.1
			c-4.5,0.9-8.9,1.9-13.3,2.8l-34.3,84.1c4.4-1,8.8-1.9,13.3-2.8c1.1-0.2,2.2-0.4,3.2-0.6c0.2,0,0.4-0.1,0.6-0.1
			c0.8-0.1,1.7-0.3,2.5-0.4c0.3,0,0.5-0.1,0.8-0.1c1-0.1,2-0.3,3-0.4c0,0,0,0,0.1,0c1.2-0.1,2.3-0.2,3.5-0.3
			c0.9-0.1,1.7-0.1,2.6-0.2c0.4,0,0.8-0.1,1.2-0.1c0.7,0,1.4-0.1,2.1-0.1c0.3,0,0.7,0,1,0c0.9,0,1.8-0.1,2.8-0.1c0.1,0,0.3,0,0.4,0
			c1.1,0,2.2,0,3.3,0c1.1,0,2.1,0,3.2,0c0.3,0,0.7,0,1,0c0.7,0,1.4,0,2.1,0.1c0.4,0,0.9,0,1.3,0.1c0.6,0,1.3,0.1,1.9,0.1
			c0.4,0,0.9,0.1,1.3,0.1c0.6,0,1.2,0.1,1.9,0.1c0.5,0,1,0.1,1.4,0.1c0.6,0.1,1.2,0.1,1.8,0.2c0.5,0,0.9,0.1,1.4,0.1
			c0.6,0.1,1.2,0.1,1.7,0.2c0.5,0.1,1.1,0.1,1.6,0.2c0.6,0.1,1.1,0.1,1.7,0.2c0.5,0.1,1,0.1,1.6,0.2c0.5,0.1,1,0.1,1.5,0.2
			c0.6,0.1,1.3,0.2,1.9,0.3c0.5,0.1,1,0.2,1.5,0.3c0.6,0.1,1.2,0.2,1.8,0.3c0.5,0.1,0.9,0.2,1.4,0.3c0.7,0.1,1.5,0.3,2.2,0.4
			c0.5,0.1,0.9,0.2,1.4,0.3c0.7,0.2,1.4,0.3,2.2,0.5c0.4,0.1,0.8,0.2,1.3,0.3c1.2,0.3,2.4,0.6,3.6,0.9c0,0,0.1,0,0.1,0
			c1.2,0.3,2.5,0.6,3.7,1c0.6,0.2,1.2,0.3,1.8,0.5c0.3,0.1,0.6,0.2,0.9,0.3c0.9,0.3,1.9,0.5,2.8,0.8c0.7,0.2,1.4,0.4,2.1,0.7
			c0.4,0.1,0.9,0.3,1.3,0.5c0.1,0,0.3,0.1,0.4,0.1c0.6,0.2,1.2,0.4,1.8,0.6c0.2,0.1,0.3,0.1,0.5,0.2c0.4,0.2,0.9,0.3,1.3,0.5
			c0.2,0.1,0.4,0.2,0.7,0.3c0.4,0.1,0.7,0.3,1.1,0.4c0.2,0.1,0.5,0.2,0.7,0.3c0.4,0.2,0.7,0.3,1.1,0.5c0.2,0.1,0.5,0.2,0.7,0.3
			c0.4,0.2,0.8,0.3,1.1,0.5c0.2,0.1,0.4,0.2,0.6,0.3c0.5,0.2,0.9,0.4,1.4,0.6c0.1,0.1,0.3,0.1,0.4,0.2c0.6,0.3,1.2,0.6,1.8,0.8
			c0.2,0.1,0.3,0.2,0.5,0.2c0.4,0.2,0.9,0.4,1.3,0.6c0.2,0.1,0.4,0.2,0.7,0.3c0.4,0.2,0.7,0.4,1.1,0.6c0.2,0.1,0.5,0.2,0.7,0.4
			c0.4,0.2,0.7,0.4,1.1,0.6c0.2,0.1,0.5,0.2,0.7,0.4c0.4,0.2,0.8,0.4,1.2,0.6c0.2,0.1,0.4,0.2,0.6,0.3c0.5,0.3,1,0.6,1.4,0.8
			c0.1,0.1,0.2,0.1,0.3,0.2c0.6,0.3,1.2,0.7,1.8,1.1c0.2,0.1,0.3,0.2,0.5,0.3c0.4,0.3,0.8,0.5,1.3,0.8c0.2,0.1,0.4,0.3,0.7,0.4
			c0.4,0.2,0.7,0.5,1.1,0.7c0.2,0.1,0.5,0.3,0.7,0.4c0.4,0.2,0.7,0.5,1.1,0.7c0.2,0.1,0.5,0.3,0.7,0.4c0.4,0.3,0.8,0.5,1.2,0.8
			c0.2,0.1,0.4,0.3,0.6,0.4c0.5,0.3,1,0.7,1.5,1c0.1,0.1,0.2,0.1,0.3,0.2c0.6,0.4,1.2,0.8,1.8,1.2c0.2,0.1,0.4,0.3,0.5,0.4
			c0.4,0.3,0.8,0.6,1.2,0.9c0.2,0.2,0.4,0.3,0.7,0.5c0.4,0.3,0.7,0.6,1.1,0.8c0.2,0.2,0.5,0.3,0.7,0.5c0.4,0.3,0.7,0.6,1.1,0.8
			c0.2,0.2,0.5,0.3,0.7,0.5c0.4,0.3,0.8,0.6,1.2,0.9c0.2,0.2,0.4,0.3,0.6,0.5c0.5,0.4,1.1,0.9,1.6,1.3c0.1,0,0.1,0.1,0.2,0.1
			c0.6,0.5,1.2,0.9,1.8,1.4c0.2,0.2,0.4,0.3,0.6,0.5c0.4,0.3,0.8,0.7,1.2,1c0.2,0.2,0.4,0.4,0.7,0.6c0.4,0.3,0.7,0.6,1.1,0.9
			c0.2,0.2,0.5,0.4,0.7,0.6c0.4,0.3,0.7,0.6,1.1,1c0.2,0.2,0.4,0.4,0.7,0.6c0.4,0.3,0.8,0.7,1.2,1c0.2,0.2,0.4,0.3,0.6,0.5
			c0.6,0.5,1.2,1,1.8,1.6c17.8,15.9,31.3,31.9,40.8,47.1c9.5,15.3,15.7,28.2,18.9,39.5c1.6,5.7,2.7,12.6,3.2,21.1
			c0.4,7.2-0.8,14.2-3.7,21.4l9.3-22.7c1.3-3.1,2.5-6.2,3.8-9.4L402.2,236.4z"/>
		<path class="st4" d="M175.7,103.2L210,19c-1.8,0.6-3.6,1.2-5.3,1.8c-0.2,0.1-0.4,0.1-0.6,0.2c-0.3,0.1-0.6,0.2-0.9,0.3
			c-1.9,0.7-3.8,1.3-5.7,2c-4.1,1.5-8.1,3-12.1,4.6c-0.5,0.2-1,0.4-1.5,0.6c-0.2,0.1-0.5,0.2-0.7,0.3c-0.3,0.1-0.6,0.2-0.9,0.4
			c-0.6,0.2-1.2,0.5-1.7,0.8c-0.2,0.1-0.5,0.2-0.7,0.3c-0.8,0.4-1.6,0.7-2.4,1.1c-0.1,0.1-0.2,0.1-0.4,0.2c-0.5,0.3-1.1,0.5-1.6,0.8
			c-0.1,0.1-0.2,0.1-0.3,0.2c-0.3,0.2-0.7,0.3-1,0.5c-0.5,0.2-0.9,0.5-1.4,0.7c-0.4,0.2-0.7,0.4-1,0.6c-0.4,0.2-0.9,0.5-1.3,0.7
			c-0.3,0.2-0.7,0.4-1,0.6c-0.4,0.2-0.9,0.5-1.3,0.7c-0.3,0.2-0.7,0.4-1,0.6c-0.2,0.1-0.4,0.2-0.6,0.3c-0.2,0.1-0.4,0.2-0.5,0.3
			c-0.5,0.3-1.1,0.7-1.6,1c-0.3,0.2-0.7,0.4-1,0.6c-0.6,0.4-1.1,0.7-1.7,1.1c-0.3,0.2-0.6,0.4-0.9,0.6c-0.7,0.5-1.4,1-2.1,1.5
			c-0.1,0.1-0.2,0.2-0.4,0.3c-0.8,0.6-1.6,1.2-2.4,1.8c0,0-0.1,0.1-0.1,0.1c-0.2,0.1-0.3,0.3-0.5,0.4c-0.6,0.5-1.2,0.9-1.8,1.4
			c-0.3,0.2-0.6,0.5-0.8,0.7c-0.5,0.4-1,0.9-1.6,1.3c-0.3,0.2-0.6,0.5-0.8,0.7c-0.5,0.5-1.1,0.9-1.6,1.4c-0.2,0.2-0.5,0.4-0.7,0.6
			c-0.7,0.7-1.5,1.4-2.2,2.1c-0.1,0.1-0.1,0.1-0.2,0.2c-0.7,0.7-1.3,1.3-2,2c-0.2,0.2-0.5,0.5-0.7,0.7c-0.5,0.5-0.9,1-1.4,1.5
			c-0.2,0.3-0.5,0.5-0.7,0.8c-0.4,0.5-0.9,1-1.3,1.5c-0.2,0.3-0.5,0.5-0.7,0.8c-0.5,0.6-1,1.2-1.5,1.8c-0.1,0.2-0.3,0.4-0.4,0.5
			c-0.6,0.8-1.2,1.6-1.8,2.4c-0.2,0.2-0.3,0.4-0.5,0.6c-0.4,0.6-0.9,1.2-1.3,1.8c-0.2,0.3-0.4,0.6-0.6,0.9c-0.4,0.6-0.7,1.1-1.1,1.7
			c-0.2,0.3-0.4,0.6-0.6,0.9c-0.4,0.6-0.7,1.2-1.1,1.8c-0.2,0.3-0.3,0.5-0.5,0.8c-0.5,0.9-1,1.8-1.5,2.7c0,0,0,0.1-0.1,0.1
			c-0.5,0.9-0.9,1.7-1.4,2.6c-0.1,0.3-0.3,0.6-0.4,0.9c-0.3,0.6-0.6,1.3-0.9,1.9c-0.2,0.3-0.3,0.7-0.5,1c-0.3,0.6-0.6,1.3-0.8,1.9
			c-0.1,0.2-0.2,0.4-0.3,0.6c-0.1,0.3-0.2,0.6-0.3,0.8l-5.4,13.3c-0.9,2.1-1.7,4.2-2.6,6.4l-5.5,13.5c-0.2,0.4-0.3,0.8-0.5,1.2
			l-1.7,4.1c-0.3,0.6-0.5,1.3-0.8,1.9l-3.9,9.5c-0.3,0.7-0.6,1.4-0.9,2.1L98,148.8c-1.2,2.8-2.3,5.6-3.4,8.4l-2.3,5.6
			c-0.3,0.7-0.5,1.3-0.8,2l-0.9,2.2c-0.5,1.3-1.1,2.6-1.6,3.9c0.2-0.5,0.4-1,0.6-1.5c0.3-0.6,0.6-1.3,0.8-1.9c0.2-0.3,0.3-0.7,0.5-1
			c0.3-0.6,0.6-1.3,0.9-1.9c0.1-0.3,0.3-0.6,0.4-0.9c0.4-0.9,0.9-1.8,1.4-2.6c0,0,0-0.1,0.1-0.1c0.5-0.9,1-1.8,1.5-2.7
			c0.2-0.3,0.3-0.5,0.5-0.8c0.4-0.6,0.7-1.2,1.1-1.8c0.2-0.3,0.4-0.6,0.6-0.9c0.4-0.6,0.7-1.1,1.1-1.7c0.2-0.3,0.4-0.6,0.6-0.9
			c0.4-0.6,0.9-1.2,1.3-1.8c0.2-0.2,0.3-0.4,0.5-0.6c0.6-0.8,1.2-1.6,1.8-2.4c0.1-0.2,0.3-0.4,0.4-0.5c0.5-0.6,1-1.2,1.5-1.8
			c0.2-0.3,0.5-0.5,0.7-0.8c0.4-0.5,0.9-1,1.3-1.5c0.2-0.3,0.5-0.5,0.7-0.8c0.5-0.5,0.9-1,1.4-1.5c0.2-0.2,0.4-0.5,0.7-0.7
			c0.7-0.7,1.3-1.3,2-2c0.1-0.1,0.1-0.1,0.2-0.2c0.7-0.7,1.5-1.4,2.2-2.1c0.2-0.2,0.5-0.4,0.7-0.6c0.5-0.5,1.1-0.9,1.6-1.4
			c0.3-0.2,0.6-0.5,0.8-0.7c0.5-0.4,1-0.9,1.6-1.3c0.3-0.2,0.6-0.5,0.8-0.7c0.6-0.5,1.2-0.9,1.8-1.4c0.2-0.2,0.4-0.3,0.6-0.5
			c0.8-0.6,1.6-1.2,2.4-1.8c0.1-0.1,0.2-0.2,0.4-0.3c0.7-0.5,1.4-1,2.1-1.5c0.3-0.2,0.6-0.4,0.9-0.6c0.6-0.4,1.1-0.7,1.7-1.1
			c0.3-0.2,0.7-0.4,1-0.6c0.5-0.3,1.1-0.7,1.6-1c0.4-0.2,0.8-0.5,1.1-0.7c0.3-0.2,0.7-0.4,1-0.6c0.4-0.3,0.9-0.5,1.3-0.7
			c0.3-0.2,0.7-0.4,1-0.6c0.4-0.2,0.9-0.5,1.3-0.7c0.3-0.2,0.7-0.4,1-0.6c0.5-0.2,0.9-0.5,1.4-0.7c0.3-0.2,0.7-0.4,1-0.5
			c0.6-0.3,1.3-0.6,1.9-0.9c0.1-0.1,0.2-0.1,0.4-0.2c0.8-0.4,1.6-0.7,2.4-1.1c0.2-0.1,0.5-0.2,0.7-0.3c0.6-0.3,1.1-0.5,1.7-0.8
			c0.3-0.1,0.6-0.2,0.9-0.4c0.7-0.3,1.5-0.6,2.2-0.9c3.9-1.6,8-3.1,12.1-4.6c1.9-0.7,3.8-1.4,5.7-2c0.3-0.1,0.6-0.2,0.9-0.3
			C171.7,104.5,173.7,103.8,175.7,103.2z"/>
		<g class="st2">
			<defs>
				<path id="SVGID_1_" class="st2" d="M89,170.8l34.3-84.1c-1,2.5-1.9,5-2.7,7.6l-34.3,84.1C87.1,175.8,88,173.3,89,170.8z"/>
			</defs>
			<clipPath id="SVGID_2_">
				<use xlink:href="#SVGID_1_"  style="overflow:visible;"/>
			</clipPath>
			<g class="st5">
				<path class="st3" d="M120.5,94.3l-34.3,84.1c0.8-2.6,1.7-5.1,2.7-7.6l34.3-84.1C122.3,89.1,121.4,91.7,120.5,94.3"/>
			</g>
		</g>
		<g class="st2">
			<defs>
				<path id="SVGID_3_" class="st2" d="M124.3,95.4c-0.7,1.7-1.3,3.4-1.9,5.1L88,184.7c0.6-1.7,1.2-3.5,1.9-5.1
					C100.2,154.3,114,120.6,124.3,95.4z"/>
			</defs>
			<clipPath id="SVGID_4_">
				<use xlink:href="#SVGID_3_"  style="overflow:visible;"/>
			</clipPath>
			<g class="st6">
				<path class="st3" d="M124.3,95.4L90,179.5c-0.7,1.7-1.3,3.4-1.9,5.1l34.3-84.1C122.9,98.8,123.6,97.1,124.3,95.4"/>
			</g>
		</g>
		<path d="M357.1,132.4c-6.4-22.2-14.3-40.6-23.9-55.3c-9.6-14.6-20-26.3-31-34.5c-0.6-0.5-1.2-0.9-1.8-1.3
			c-0.2-0.1-0.3-0.2-0.5-0.3c-0.6-0.4-1.2-0.9-1.8-1.3c0,0-0.1,0-0.1-0.1c-0.6-0.4-1.2-0.8-1.8-1.2c-0.2-0.1-0.3-0.2-0.5-0.3
			c-0.6-0.4-1.2-0.8-1.9-1.2c0,0-0.1-0.1-0.1-0.1c-0.6-0.4-1.2-0.7-1.7-1c-0.2-0.1-0.3-0.2-0.5-0.3c-0.6-0.4-1.2-0.7-1.9-1.1
			c-0.1,0-0.1-0.1-0.2-0.1c-0.6-0.3-1.1-0.6-1.7-0.9c-0.2-0.1-0.3-0.2-0.5-0.2c-0.6-0.3-1.2-0.6-1.9-0.9c-0.1,0-0.2-0.1-0.3-0.1
			c-0.6-0.3-1.1-0.5-1.7-0.8c-0.2-0.1-0.3-0.1-0.5-0.2c-0.6-0.3-1.2-0.6-1.9-0.8c-0.1,0-0.2-0.1-0.3-0.1c-0.3-0.1-0.7-0.3-1-0.4
			c-0.1-0.1-0.3-0.1-0.4-0.2c-0.5-0.2-0.9-0.4-1.4-0.5c-0.3-0.1-0.6-0.2-0.9-0.3c-0.5-0.2-1-0.3-1.4-0.5c-0.2-0.1-0.4-0.2-0.7-0.2
			c-0.1,0-0.1,0-0.2-0.1c-0.2-0.1-0.4-0.1-0.7-0.2c-0.4-0.1-0.9-0.3-1.3-0.4c-0.3-0.1-0.5-0.1-0.8-0.2c-0.2-0.1-0.4-0.1-0.6-0.2
			c-0.3-0.1-0.5-0.1-0.8-0.2c-0.2,0-0.3-0.1-0.5-0.1c-0.6-0.2-1.2-0.3-1.8-0.4c-0.1,0-0.1,0-0.2,0c-0.9-0.2-1.9-0.4-2.8-0.6
			c-0.3-0.1-0.6-0.1-0.8-0.2c-0.4-0.1-0.7-0.1-1.1-0.2c-0.3-0.1-0.7-0.1-1-0.2c-0.3,0-0.5-0.1-0.8-0.1c-0.9-0.2-1.8-0.3-2.7-0.4
			c0,0,0,0,0,0c0,0,0,0-0.1,0c-0.9-0.1-1.7-0.2-2.6-0.3c-0.2,0-0.5-0.1-0.7-0.1c-0.2,0-0.5-0.1-0.7-0.1c-0.6-0.1-1.2-0.1-1.9-0.2
			c0,0,0,0,0,0c-0.6-0.1-1.3-0.1-1.9-0.1c-0.2,0-0.5,0-0.7,0c-0.2,0-0.4,0-0.5,0c-0.8,0-1.5-0.1-2.3-0.1c-0.1,0-0.1,0-0.2,0
			c-1,0-2-0.1-3-0.1c-0.1,0-0.1,0-0.2,0c-0.6,0-1.2,0-1.9,0c-0.2,0-0.3,0-0.5,0c-0.3,0-0.6,0-0.9,0c-0.1,0-0.2,0-0.3,0
			c-0.9,0-1.9,0.1-2.8,0.2c0,0,0,0,0,0c-0.7,0.1-1.4,0.1-2,0.2c-0.8,0.1-1.5,0.2-2.3,0.2c-0.1,0-0.1,0-0.2,0c-1,0.1-1.9,0.2-2.9,0.4
			c-0.2,0-0.4,0.1-0.5,0.1c-0.8,0.1-1.6,0.2-2.4,0.3c-0.1,0-0.2,0-0.3,0c-0.2,0-0.4,0.1-0.7,0.1c-0.7,0.1-1.3,0.2-2,0.3
			c-0.3,0.1-0.7,0.1-1,0.2c-0.7,0.1-1.3,0.2-2,0.4c-0.2,0-0.4,0.1-0.7,0.1c-0.1,0-0.2,0-0.3,0.1c-0.6,0.1-1.2,0.3-1.9,0.4
			c-0.3,0.1-0.6,0.1-0.9,0.2c-0.9,0.2-1.8,0.4-2.7,0.6c-0.1,0-0.1,0-0.2,0c-0.1,0-0.1,0-0.2,0c-0.6,0.1-1.2,0.3-1.8,0.4
			c-0.1,0-0.2,0-0.2,0.1c-0.6,0.2-1.2,0.3-1.8,0.5c-0.1,0-0.1,0-0.2,0c-0.1,0-0.1,0-0.2,0c-0.6,0.2-1.2,0.3-1.7,0.5
			c-0.1,0-0.2,0.1-0.3,0.1c-0.6,0.2-1.2,0.4-1.7,0.6c0,0,0,0,0,0c0,0,0,0,0,0c-0.6,0.2-1.2,0.4-1.8,0.6c0,0-0.1,0-0.1,0.1
			c-0.6,0.2-1.1,0.4-1.6,0.6c0,0-0.1,0-0.1,0.1c0,0,0,0-0.1,0c-0.6,0.2-1.1,0.5-1.6,0.7c-0.1,0-0.1,0.1-0.2,0.1
			c-0.5,0.2-1,0.5-1.5,0.7c0,0-0.1,0-0.1,0.1c0,0-0.1,0-0.1,0c-0.3,0.2-0.6,0.3-0.9,0.5l-34.3,84.1c0.3-0.2,0.6-0.3,0.9-0.5
			c0.1,0,0.1-0.1,0.2-0.1c0.5-0.2,1-0.5,1.5-0.7c0.1,0,0.1-0.1,0.2-0.1c0.5-0.2,1.1-0.5,1.6-0.7c0.1,0,0.1-0.1,0.2-0.1
			c0.5-0.2,1.1-0.4,1.6-0.6c0,0,0.1,0,0.1-0.1c0.6-0.2,1.2-0.4,1.8-0.6c0,0,0,0,0,0c0.6-0.2,1.1-0.4,1.7-0.6c0.1,0,0.2-0.1,0.3-0.1
			c0.6-0.2,1.1-0.4,1.7-0.5c0.1,0,0.2-0.1,0.3-0.1c0.6-0.2,1.2-0.3,1.7-0.5c0.1,0,0.2,0,0.2-0.1c0.6-0.2,1.2-0.3,1.8-0.4
			c0.1,0,0.2-0.1,0.3-0.1c0.9-0.2,1.8-0.4,2.7-0.6c0.3-0.1,0.6-0.1,0.9-0.2c0.6-0.1,1.2-0.3,1.9-0.4c0.3-0.1,0.7-0.1,1-0.2
			c0.7-0.1,1.3-0.2,2-0.4c0.3-0.1,0.7-0.1,1-0.2c0.7-0.1,1.3-0.2,2-0.3c0.3-0.1,0.6-0.1,1-0.2c0.8-0.1,1.6-0.2,2.4-0.3
			c0.2,0,0.4-0.1,0.5-0.1c1-0.1,1.9-0.2,2.9-0.4c0.8-0.1,1.6-0.2,2.4-0.3c0.7-0.1,1.4-0.1,2.1-0.2c0.9-0.1,1.9-0.1,2.8-0.2
			c0.4,0,0.8,0,1.2,0c0.2,0,0.3,0,0.5,0c0.7,0,1.4,0,2.1,0c1,0,2,0,3,0.1c0.8,0,1.6,0.1,2.5,0.1c0.2,0,0.4,0,0.5,0
			c0.9,0.1,1.7,0.1,2.6,0.2c0,0,0,0,0,0c0.9,0.1,1.7,0.2,2.6,0.3c0.2,0,0.5,0.1,0.7,0.1c0.9,0.1,1.7,0.2,2.6,0.3c0,0,0,0,0.1,0
			c0.9,0.1,1.8,0.3,2.7,0.4c0.3,0,0.5,0.1,0.8,0.1c0.7,0.1,1.4,0.2,2,0.4c0.3,0.1,0.5,0.1,0.8,0.2c0.9,0.2,1.9,0.4,2.8,0.6
			c0.7,0.1,1.3,0.3,2,0.5c0.2,0,0.3,0.1,0.5,0.1c0.5,0.1,0.9,0.3,1.4,0.4c0.3,0.1,0.5,0.1,0.8,0.2c0.4,0.1,0.9,0.3,1.3,0.4
			c0.2,0.1,0.4,0.1,0.7,0.2c0.3,0.1,0.6,0.2,0.9,0.3c0.5,0.2,1,0.3,1.4,0.5c0.3,0.1,0.6,0.2,0.9,0.3c0.5,0.2,0.9,0.3,1.4,0.5
			c0.5,0.2,0.9,0.4,1.4,0.6c0.1,0,0.2,0.1,0.3,0.1c0.6,0.3,1.2,0.5,1.9,0.8c0.1,0.1,0.3,0.1,0.4,0.2c0.6,0.3,1.1,0.5,1.7,0.8
			c0.1,0,0.2,0.1,0.2,0.1c0.6,0.3,1.2,0.6,1.9,0.9c0.2,0.1,0.3,0.2,0.5,0.2c0.6,0.3,1.1,0.6,1.7,0.9c0.1,0,0.1,0.1,0.2,0.1
			c0.6,0.3,1.2,0.7,1.9,1.1c0.2,0.1,0.3,0.2,0.5,0.3c0.6,0.3,1.2,0.7,1.7,1c0,0,0.1,0.1,0.1,0.1c0.6,0.4,1.2,0.8,1.9,1.2
			c0.2,0.1,0.3,0.2,0.5,0.3c0.6,0.4,1.2,0.8,1.8,1.2c0,0,0,0,0.1,0c0.6,0.4,1.2,0.9,1.9,1.3c0.2,0.1,0.3,0.2,0.5,0.3
			c0.6,0.4,1.2,0.9,1.8,1.3c11.1,8.2,21.5,19.9,31,34.5c9.6,14.6,17.5,33,23.9,55.3c5.7,19.7,8.5,35.7,8.5,48.4
			c0,4.9-0.3,9.4-1,13.5c-0.3,2.1-0.8,4-1.3,5.9c-0.1,0.5-0.3,0.9-0.4,1.4c-0.4,1.4-0.9,2.7-1.4,3.9l0,0c0,0,0,0,0,0l34.3-84.1
			c2.7-6.7,4-14.9,4-24.7C365.6,168.2,362.7,152.1,357.1,132.4z"/>
		<path class="st7" d="M329.8,283.6l0.8-2c5.3-13,11.2-27.5,17-41.7l0.5-1.2c1.9-4.6,3.7-9.1,5.5-13.5l2.6-6.4
			c1.9-4.6,3.7-9.1,5.4-13.3c-0.1,0.3-0.3,0.6-0.4,0.9c-0.1,0.2-0.2,0.4-0.3,0.6c-0.1,0.3-0.3,0.5-0.4,0.8c-0.1,0.2-0.2,0.4-0.3,0.5
			c-0.1,0.3-0.3,0.6-0.5,0.9c-0.1,0.1-0.1,0.3-0.2,0.4c-0.2,0.4-0.5,0.8-0.7,1.2c-0.3,0.5-0.6,1-0.9,1.4c-0.1,0.2-0.2,0.3-0.3,0.5
			c-0.2,0.3-0.4,0.6-0.6,0.9c-0.1,0.2-0.3,0.3-0.4,0.5c-0.2,0.3-0.4,0.5-0.6,0.8c-0.1,0.2-0.3,0.4-0.4,0.5c-0.2,0.2-0.4,0.5-0.6,0.7
			c-0.2,0.2-0.3,0.4-0.5,0.5c-0.2,0.2-0.4,0.5-0.6,0.7c-0.2,0.2-0.3,0.3-0.5,0.5c-0.2,0.2-0.4,0.4-0.7,0.6c-0.2,0.2-0.4,0.3-0.5,0.5
			c-0.2,0.2-0.5,0.4-0.7,0.6c-0.2,0.2-0.4,0.3-0.6,0.5c-0.2,0.2-0.5,0.4-0.7,0.6c-0.2,0.1-0.4,0.3-0.5,0.4c-0.4,0.3-0.7,0.5-1.1,0.8
			c-0.1,0.1-0.2,0.2-0.4,0.2c-0.5,0.3-1,0.7-1.5,1c-0.3,0.2-0.6,0.3-0.8,0.5c-0.2,0.1-0.3,0.2-0.5,0.3c-0.4,0.2-0.7,0.4-1.1,0.6
			c-0.1,0.1-0.2,0.1-0.3,0.2c-0.4,0.2-0.9,0.4-1.4,0.6c-0.1,0.1-0.3,0.1-0.4,0.2c-0.3,0.1-0.6,0.2-0.9,0.4c-0.6,0.3-1.3,0.5-1.9,0.7
			c-0.3,0.1-0.6,0.2-0.9,0.3c-0.3,0.1-0.6,0.2-0.9,0.3c-0.3,0.1-0.5,0.2-0.8,0.2c-0.3,0.1-0.6,0.2-0.9,0.3c-0.3,0.1-0.6,0.2-0.9,0.2
			c-0.3,0.1-0.5,0.1-0.8,0.2c-0.3,0.1-0.6,0.2-0.9,0.2c-0.3,0.1-0.5,0.1-0.8,0.2c-0.3,0.1-0.7,0.2-1,0.2c-0.2,0.1-0.5,0.1-0.7,0.2
			c-0.4,0.1-0.7,0.1-1.1,0.2c-0.2,0-0.5,0.1-0.7,0.1c-0.4,0.1-0.8,0.2-1.3,0.2c-0.2,0-0.3,0.1-0.5,0.1c-0.6,0.1-1.2,0.2-1.8,0.3
			c-0.1,0-0.3,0-0.4,0.1c-0.5,0.1-1,0.1-1.5,0.2c-0.2,0-0.5,0.1-0.7,0.1c-0.4,0-0.8,0.1-1.2,0.1c-0.3,0-0.6,0.1-0.9,0.1
			c-0.3,0-0.7,0.1-1,0.1c-0.3,0-0.6,0.1-0.9,0.1c-0.3,0-0.7,0.1-1,0.1c-0.4,0-0.8,0.1-1.1,0.1c-0.3,0-0.6,0-0.9,0.1
			c-0.4,0-0.8,0-1.2,0.1c-0.3,0-0.6,0-0.9,0c-0.5,0-0.9,0-1.4,0c-0.2,0-0.5,0-0.7,0c-0.7,0-1.4,0-2.1,0l-34.3,84.1
			c0.7,0,1.4,0,2.1,0c0.2,0,0.5,0,0.7,0c0.5,0,0.9,0,1.4,0c0,0,0,0,0.1,0c0.3,0,0.5,0,0.8,0c0.4,0,0.8,0,1.2-0.1
			c0.3,0,0.6,0,0.9-0.1c0.4,0,0.8,0,1.1-0.1c0,0,0.1,0,0.1,0c0.3,0,0.6-0.1,1-0.1c0.3,0,0.6,0,0.9-0.1c0.4,0,0.7-0.1,1-0.1
			c0.3,0,0.6-0.1,0.9-0.1c0,0,0,0,0.1,0c0.4,0,0.8-0.1,1.1-0.1c0.2,0,0.5-0.1,0.7-0.1c0.5-0.1,1-0.1,1.5-0.2c0.1,0,0.3,0,0.4-0.1
			c0,0,0,0,0,0c0.6-0.1,1.2-0.2,1.8-0.3c0.2,0,0.3-0.1,0.5-0.1c0.4-0.1,0.8-0.1,1.2-0.2c0,0,0,0,0.1,0c0.2,0,0.5-0.1,0.7-0.1
			c0.4-0.1,0.7-0.1,1.1-0.2c0.2-0.1,0.5-0.1,0.7-0.2c0.3-0.1,0.6-0.1,0.9-0.2c0,0,0.1,0,0.1,0c0.3-0.1,0.5-0.1,0.8-0.2
			c0.3-0.1,0.6-0.2,0.9-0.2c0.3-0.1,0.5-0.1,0.8-0.2c0.2-0.1,0.5-0.1,0.7-0.2c0,0,0.1,0,0.1,0c0.3-0.1,0.6-0.2,0.9-0.3
			c0.3-0.1,0.5-0.2,0.8-0.2c0.3-0.1,0.6-0.2,0.9-0.3c0.2-0.1,0.4-0.1,0.7-0.2c0.1,0,0.2-0.1,0.2-0.1c0.6-0.2,1.3-0.5,1.9-0.7
			c0.1,0,0.1-0.1,0.2-0.1c0.2-0.1,0.4-0.2,0.7-0.3c0.1-0.1,0.3-0.1,0.4-0.2c0.5-0.2,0.9-0.4,1.3-0.6c0,0,0,0,0,0
			c0.1-0.1,0.2-0.1,0.3-0.2c0.4-0.2,0.7-0.4,1.1-0.6c0.2-0.1,0.3-0.2,0.5-0.3c0.3-0.1,0.5-0.3,0.8-0.4c0,0,0,0,0.1,0
			c0.5-0.3,1-0.6,1.5-1c0.1-0.1,0.2-0.2,0.4-0.2c0.4-0.3,0.8-0.5,1.1-0.8c0.1-0.1,0.1-0.1,0.2-0.1c0.1-0.1,0.2-0.2,0.3-0.3
			c0.2-0.2,0.5-0.4,0.7-0.6c0.2-0.2,0.4-0.3,0.6-0.5c0.2-0.2,0.5-0.4,0.7-0.6c0.2-0.2,0.4-0.3,0.5-0.5c0.2-0.2,0.4-0.4,0.7-0.6
			c0.2-0.2,0.3-0.3,0.5-0.5c0.2-0.2,0.4-0.4,0.6-0.7c0.2-0.2,0.3-0.3,0.5-0.5c0.2-0.2,0.4-0.5,0.6-0.7c0.1-0.2,0.3-0.4,0.4-0.5
			c0.2-0.3,0.4-0.5,0.6-0.8c0.1-0.2,0.3-0.3,0.4-0.5c0.2-0.3,0.4-0.6,0.6-0.9c0.1-0.2,0.2-0.3,0.3-0.5c0.3-0.5,0.6-0.9,0.9-1.4
			c0.2-0.4,0.5-0.8,0.7-1.2c0.1-0.1,0.1-0.3,0.2-0.4c0.2-0.3,0.3-0.6,0.5-0.9c0.1-0.2,0.2-0.4,0.3-0.5c0.1-0.3,0.3-0.5,0.4-0.8
			c0.1-0.2,0.2-0.4,0.3-0.6c0.1-0.2,0.2-0.4,0.3-0.6c0-0.1,0.1-0.2,0.1-0.3l1.6-3.9C329.2,285,329.5,284.3,329.8,283.6z"/>
		<path d="M420.1,192.1c-0.5,1-1,2-1.6,3c-0.2,0.3-0.4,0.6-0.6,1c-0.4,0.7-0.8,1.3-1.3,2c-0.3,0.4-0.5,0.8-0.8,1.1
			c-0.4,0.6-0.9,1.2-1.4,1.8c-0.3,0.4-0.6,0.8-1,1.2c-0.5,0.6-1,1.2-1.6,1.8c-0.4,0.4-0.7,0.8-1.1,1.2c-0.6,0.6-1.2,1.2-1.8,1.8
			c-0.4,0.4-0.7,0.7-1.1,1.1c-0.7,0.7-1.5,1.3-2.2,2c-0.3,0.3-0.6,0.6-1,0.9c-1.1,0.9-2.3,1.9-3.5,2.8c-1.3,1-2.7,2-4.1,3
			c-1.2,0.8-2.5,1.6-3.8,2.4c-0.8,0.5-1.6,0.9-2.4,1.3c-0.8,0.4-1.7,0.9-2.6,1.3c-0.7,0.3-1.5,0.7-2.2,1c-1,0.4-2,0.9-3.1,1.3
			c-0.8,0.3-1.6,0.6-2.3,0.9c-1.1,0.4-2.2,0.8-3.4,1.2c-0.8,0.3-1.7,0.5-2.5,0.8c-1.2,0.4-2.4,0.7-3.7,1.1c-0.9,0.3-1.8,0.5-2.8,0.7
			c-1.3,0.3-2.6,0.6-3.9,0.9c-1.1,0.2-2.1,0.5-3.2,0.7c-1.3,0.3-2.6,0.5-4,0.7c-1.3,0.2-2.5,0.5-3.8,0.7c-2.3,0.4-4.7,0.7-7.2,1
			l-34.3,84.1c2.1-0.3,4.2-0.5,6.2-0.9c0.4-0.1,0.7-0.1,1-0.2c1.3-0.2,2.6-0.4,3.8-0.7c1-0.2,2-0.3,2.9-0.5c0.4-0.1,0.7-0.2,1-0.2
			c1.1-0.2,2.1-0.5,3.2-0.7c0.9-0.2,1.8-0.4,2.7-0.6c0.4-0.1,0.8-0.2,1.2-0.3c1-0.2,1.9-0.5,2.8-0.7c0.7-0.2,1.5-0.4,2.2-0.6
			c0.5-0.1,1-0.3,1.5-0.5c0.9-0.3,1.7-0.5,2.5-0.8c0.5-0.2,1.1-0.3,1.7-0.5c0.6-0.2,1.2-0.4,1.8-0.7c0.8-0.3,1.6-0.6,2.3-0.9
			c0.4-0.2,0.8-0.3,1.2-0.4c0.7-0.3,1.3-0.6,1.9-0.9c0.8-0.3,1.5-0.7,2.2-1c0.3-0.1,0.6-0.2,0.8-0.4c0.6-0.3,1.1-0.6,1.7-0.9
			c0.8-0.4,1.7-0.9,2.4-1.3c0.2-0.1,0.5-0.2,0.7-0.4c1.1-0.7,2.1-1.3,3.1-2c1.4-1,2.8-2,4.1-3c0,0,0,0,0,0c1.2-0.9,2.3-1.8,3.5-2.8
			c0.3-0.3,0.7-0.6,1-0.9c0.8-0.6,1.5-1.3,2.2-2c0.4-0.4,0.8-0.7,1.1-1.1c0.6-0.6,1.2-1.2,1.8-1.8c0.4-0.4,0.7-0.8,1.1-1.2
			c0.5-0.6,1.1-1.2,1.5-1.8c0.3-0.4,0.7-0.8,1-1.2c0.5-0.6,0.9-1.2,1.4-1.8c0.3-0.4,0.6-0.8,0.8-1.1c0.5-0.7,0.9-1.3,1.3-2
			c0.2-0.3,0.4-0.6,0.6-1c0.6-1,1.1-2,1.6-3c0.6-1.1,1.1-2.3,1.5-3.4c0.1-0.2,0.1-0.3,0.2-0.5l34.3-84.1
			C421.4,189.4,420.8,190.7,420.1,192.1z"/>
		<g class="st2">
			<defs>
				<path id="SVGID_5_" class="st2" d="M255.7,232c17.2-0.5,35.4-0.8,54-0.9l-34.3,84.1c-18.6,0.1-36.8,0.4-54,0.9
					C231.7,290.9,245.4,257.2,255.7,232z"/>
			</defs>
			<clipPath id="SVGID_6_">
				<use xlink:href="#SVGID_5_"  style="overflow:visible;"/>
			</clipPath>
			<g class="st8">
				<path class="st9" d="M255.7,232l-34.3,84.1c17.2-0.5,35.4-0.8,54-0.9l34.3-84.1C291,231.2,272.8,231.5,255.7,232"/>
			</g>
		</g>
		<g class="st2">
			<defs>
				<path id="SVGID_7_" class="st2" d="M198.6,33.2c19,66.3,38,132.5,57,198.8l-34.3,84.1c-19-66.3-38-132.5-57-198.8
					C174.6,92.1,188.3,58.5,198.6,33.2z"/>
			</defs>
			<clipPath id="SVGID_8_">
				<use xlink:href="#SVGID_7_"  style="overflow:visible;"/>
			</clipPath>
			<g class="st10">
				<path class="st3" d="M198.6,33.2l-34.3,84.1c19,66.3,38,132.5,57,198.8l34.3-84.1C236.6,165.8,217.6,99.5,198.6,33.2"/>
			</g>
		</g>
		<path class="st7" d="M538.1,427.9l3.9-9.7c1.4-3.4,2.8-6.8,4.1-10c-0.1,0.2-0.2,0.4-0.3,0.6c-0.2,0.6-0.5,1.1-0.7,1.6
			c0,0.1-0.1,0.2-0.1,0.2c-0.2,0.5-0.5,1-0.7,1.5c0,0.1-0.1,0.1-0.1,0.2c-0.3,0.5-0.5,1-0.8,1.5c0,0,0,0.1-0.1,0.1
			c-0.3,0.5-0.6,1-0.9,1.5c-0.2,0.4-0.4,0.7-0.7,1c-0.1,0.1-0.2,0.2-0.2,0.3c-0.2,0.2-0.3,0.4-0.5,0.6c-0.1,0.1-0.2,0.2-0.3,0.4
			c-0.1,0.2-0.3,0.4-0.4,0.5c-0.1,0.1-0.2,0.2-0.3,0.4c-0.1,0.2-0.3,0.3-0.4,0.5c-0.1,0.1-0.2,0.2-0.3,0.3c-0.1,0.1-0.3,0.3-0.4,0.4
			c-0.1,0.1-0.2,0.2-0.3,0.3c-0.1,0.1-0.2,0.3-0.4,0.4c-0.1,0.1-0.2,0.2-0.3,0.3c-0.1,0.1-0.2,0.2-0.4,0.3c-0.1,0.1-0.2,0.2-0.3,0.3
			c-0.1,0.1-0.2,0.2-0.4,0.3c-0.2,0.2-0.4,0.3-0.6,0.5c-0.1,0-0.1,0.1-0.2,0.1c-0.1,0.1-0.3,0.2-0.4,0.3c-0.1,0.1-0.3,0.2-0.4,0.2
			c-0.1,0.1-0.2,0.1-0.3,0.2c-0.1,0-0.1,0.1-0.2,0.1c-0.1,0.1-0.3,0.1-0.4,0.2c-0.1,0-0.1,0-0.2,0.1c-0.2,0.1-0.4,0.1-0.6,0.2
			c0,0,0,0-0.1,0c-0.2,0.1-0.4,0.1-0.6,0.2c0,0,0,0,0,0c-0.2,0-0.4,0.1-0.6,0.1c0,0,0,0-0.1,0c-0.2,0-0.4,0-0.7,0
			c-0.2,0-0.4,0-0.7,0c0,0,0,0,0,0c-0.2,0-0.4-0.1-0.6-0.1c0,0,0,0,0,0c-0.2,0-0.4-0.1-0.6-0.1c0,0-0.1,0-0.1,0
			c-0.2-0.1-0.3-0.1-0.5-0.2c0,0-0.1,0-0.1-0.1c-0.1-0.1-0.3-0.1-0.4-0.2c-0.1,0-0.2-0.1-0.3-0.1c-0.1-0.1-0.3-0.1-0.4-0.2
			c-0.1,0-0.2-0.1-0.3-0.1c-0.1-0.1-0.3-0.2-0.4-0.3c-0.1,0-0.1-0.1-0.2-0.1c-0.2-0.1-0.4-0.3-0.6-0.5c-5.2-4.1-10-10.5-14.3-18.6
			c-2.8-5.3-5.7-12.4-8.8-21.2c-3-8.8-6.1-18-9.4-27.7c-3.3-9.6-6.6-19-10-28.1c-3.5-9.1-7.2-17.2-11.2-24.3
			c-6.9-12.1-15.5-22-26.4-30.1c-10.9-8-22.7-15-35.2-20.5c-1-0.4-2-0.9-3-1.3c-0.3-0.1-0.5-0.2-0.8-0.3c-0.8-0.4-1.7-0.7-2.5-1
			c-0.1-0.1-0.3-0.1-0.4-0.2c0,0-0.1,0-0.1,0c-1-0.4-1.9-0.8-2.9-1.1c-0.2-0.1-0.5-0.2-0.7-0.3c-0.7-0.3-1.5-0.6-2.2-0.8
			c-0.3-0.1-0.5-0.2-0.8-0.3c-1-0.3-1.9-0.7-2.8-1c-0.1,0-0.1,0-0.2-0.1c-0.9-0.3-1.8-0.6-2.7-0.9c-0.1,0-0.2-0.1-0.4-0.1
			c-0.2-0.1-0.5-0.1-0.7-0.2c-0.4-0.1-0.7-0.2-1.1-0.3c-0.4-0.1-0.8-0.2-1.2-0.4c-0.4-0.1-0.7-0.2-1.1-0.3c-0.4-0.1-0.8-0.2-1.2-0.3
			c-0.4-0.1-0.7-0.2-1.1-0.3c-0.4-0.1-0.8-0.2-1.2-0.3c-0.4-0.1-0.7-0.2-1.1-0.3c-0.1,0-0.2-0.1-0.4-0.1c-0.1,0-0.3-0.1-0.4-0.1
			c-0.9-0.2-1.8-0.5-2.8-0.7c-0.1,0-0.3-0.1-0.4-0.1c-1-0.3-2-0.5-3-0.7c-0.1,0-0.2-0.1-0.3-0.1c-0.4-0.1-0.9-0.2-1.3-0.3
			c-0.8-0.2-1.6-0.3-2.3-0.5c-0.3-0.1-0.5-0.1-0.7-0.2c-0.5-0.1-1-0.2-1.5-0.3c-0.3-0.1-0.6-0.1-0.9-0.2c-0.5-0.1-0.9-0.2-1.3-0.3
			c-0.3-0.1-0.6-0.1-0.9-0.2c-0.4-0.1-0.8-0.2-1.3-0.3c-0.3-0.1-0.6-0.1-0.9-0.2c-0.4-0.1-0.8-0.2-1.2-0.2c-0.3-0.1-0.5-0.1-0.8-0.2
			c-0.4-0.1-0.8-0.2-1.2-0.2c-0.2,0-0.5-0.1-0.7-0.1c-0.5-0.1-0.9-0.2-1.4-0.3c-0.2,0-0.4-0.1-0.5-0.1c-0.6-0.1-1.2-0.2-1.8-0.3
			c0,0,0,0,0,0c-0.5-0.1-1-0.2-1.5-0.3c-0.1,0-0.3-0.1-0.4-0.1c-0.4-0.1-0.7-0.1-1.1-0.2c-0.2,0-0.3-0.1-0.5-0.1
			c-0.3-0.1-0.6-0.1-1-0.2c-0.2,0-0.3-0.1-0.5-0.1c-0.3-0.1-0.7-0.1-1-0.2c-0.1,0-0.3,0-0.4-0.1c-0.4-0.1-0.9-0.1-1.3-0.2
			c0,0,0,0-0.1,0c-0.4-0.1-0.8-0.1-1.2-0.2c-0.1,0-0.3,0-0.4-0.1c-0.2,0-0.4-0.1-0.6-0.1c-0.2,0-0.3,0-0.5-0.1v0h0l-34.3,84.1
			c0.3,0,0.7,0.1,1,0.1c0.1,0,0.3,0,0.4,0.1c0.4,0.1,0.8,0.1,1.2,0.2c0,0,0,0,0.1,0c0.4,0.1,0.9,0.1,1.3,0.2c0.1,0,0.3,0,0.4,0.1
			c0.3,0.1,0.6,0.1,0.9,0.2c0.2,0,0.3,0.1,0.5,0.1c0.3,0.1,0.6,0.1,0.9,0.2c0.2,0,0.3,0.1,0.5,0.1c0.3,0.1,0.7,0.1,1.1,0.2
			c0.1,0,0.3,0.1,0.4,0.1c0.5,0.1,1,0.2,1.5,0.3c0.6,0.1,1.2,0.2,1.8,0.3c0.2,0,0.4,0.1,0.5,0.1c0.5,0.1,0.9,0.2,1.4,0.3
			c0.2,0,0.5,0.1,0.7,0.1c0.4,0.1,0.8,0.2,1.2,0.2c0.3,0.1,0.5,0.1,0.8,0.2c0.4,0.1,0.8,0.2,1.2,0.2c0.3,0.1,0.6,0.1,0.9,0.2
			c0.4,0.1,0.8,0.2,1.3,0.3c0.3,0.1,0.6,0.1,0.9,0.2c0.4,0.1,0.9,0.2,1.3,0.3c0.3,0.1,0.6,0.1,0.9,0.2c0.5,0.1,1,0.2,1.5,0.3
			c0.3,0.1,0.5,0.1,0.7,0.2c0.8,0.2,1.5,0.3,2.3,0.5c0.5,0.1,1.1,0.2,1.6,0.4c1,0.2,2,0.5,3,0.7c0.1,0,0.3,0.1,0.4,0.1
			c0.9,0.2,1.8,0.5,2.8,0.7c0.3,0.1,0.5,0.1,0.8,0.2c0.4,0.1,0.7,0.2,1.1,0.3c0.4,0.1,0.8,0.2,1.2,0.3c0.4,0.1,0.7,0.2,1.1,0.3
			c0.4,0.1,0.8,0.2,1.2,0.3c0.4,0.1,0.7,0.2,1.1,0.3c0.4,0.1,0.8,0.2,1.2,0.4c0.4,0.1,0.7,0.2,1.1,0.4c0.3,0.1,0.7,0.2,1,0.3
			c0.9,0.3,1.8,0.6,2.7,0.9c0.1,0,0.1,0,0.2,0.1c0.9,0.3,1.9,0.7,2.8,1c0.3,0.1,0.5,0.2,0.8,0.3c0.7,0.3,1.5,0.6,2.2,0.8
			c0.2,0.1,0.5,0.2,0.7,0.3c1,0.4,1.9,0.7,2.9,1.1c0.2,0.1,0.3,0.1,0.5,0.2c0.8,0.3,1.7,0.7,2.5,1c0.3,0.1,0.5,0.2,0.8,0.3
			c1,0.4,2,0.8,3,1.3c12.5,5.5,24.3,12.4,35.2,20.5c10.9,8.1,19.5,18,26.4,30.1c4.1,7.1,7.8,15.2,11.2,24.3
			c3.4,9.1,6.8,18.5,10,28.1c3.3,9.6,6.4,18.9,9.4,27.7c3,8.8,6,15.9,8.8,21.2c4.3,8.2,9.1,14.5,14.3,18.6c0.2,0.2,0.4,0.3,0.6,0.5
			c0.1,0,0.1,0.1,0.2,0.1c0.1,0.1,0.3,0.2,0.4,0.3c0.1,0.1,0.2,0.1,0.3,0.1c0.1,0.1,0.3,0.1,0.4,0.2c0.1,0,0.2,0.1,0.3,0.1
			c0.1,0,0.2,0.1,0.3,0.1c0,0,0,0,0.1,0c0,0,0.1,0,0.1,0.1c0.1,0,0.2,0.1,0.3,0.1c0.1,0,0.1,0,0.2,0.1c0,0,0.1,0,0.1,0
			c0,0,0.1,0,0.1,0c0.1,0,0.2,0.1,0.3,0.1c0.1,0,0.1,0,0.2,0c0,0,0,0,0,0c0,0,0,0,0,0c0.1,0,0.2,0,0.3,0c0.1,0,0.2,0,0.3,0
			c0,0,0,0,0.1,0c0,0,0,0,0,0c0.1,0,0.1,0,0.2,0c0.1,0,0.2,0,0.3,0c0.1,0,0.2,0,0.2,0c0,0,0,0,0,0c0.1,0,0.2,0,0.3,0
			c0.1,0,0.2,0,0.3,0c0,0,0.1,0,0.1,0c0,0,0,0,0.1,0c0,0,0.1,0,0.1,0c0.1,0,0.2,0,0.3,0c0.1,0,0.2,0,0.2,0c0,0,0,0,0,0c0,0,0,0,0,0
			c0.1,0,0.2,0,0.3-0.1c0.1,0,0.2,0,0.3-0.1c0,0,0,0,0.1,0c0,0,0,0,0,0c0.1,0,0.3-0.1,0.4-0.1c0,0,0.1,0,0.1-0.1
			c0.1,0,0.1,0,0.2-0.1c0.1,0,0.1,0,0.2-0.1c0.1,0,0.2-0.1,0.3-0.1c0.1,0,0.1-0.1,0.2-0.1c0,0,0.1,0,0.1,0c0.1,0,0.2-0.1,0.2-0.1
			c0.1-0.1,0.3-0.2,0.4-0.2c0,0,0.1,0,0.1-0.1c0.1-0.1,0.2-0.1,0.4-0.2c0.1,0,0.1-0.1,0.2-0.1c0.2-0.1,0.4-0.3,0.6-0.4c0,0,0,0,0,0
			c0.1-0.1,0.2-0.2,0.4-0.3c0.1-0.1,0.2-0.2,0.3-0.3c0.1-0.1,0.2-0.2,0.4-0.3c0.1-0.1,0.2-0.2,0.3-0.3c0.1-0.1,0.2-0.3,0.4-0.4
			c0.1-0.1,0.2-0.2,0.3-0.3c0.1-0.1,0.3-0.3,0.4-0.4c0.1-0.1,0.2-0.2,0.3-0.3c0.1-0.2,0.3-0.3,0.4-0.5c0.1-0.1,0.2-0.2,0.3-0.4
			c0.1-0.2,0.3-0.4,0.4-0.5c0.1-0.1,0.2-0.2,0.3-0.4c0.2-0.2,0.3-0.4,0.5-0.6c0.1-0.1,0.2-0.2,0.2-0.3c0.2-0.3,0.5-0.7,0.7-1
			c0.3-0.5,0.6-1,0.9-1.5c0,0,0-0.1,0.1-0.1c0.3-0.5,0.5-1,0.8-1.5c0-0.1,0.1-0.1,0.1-0.2c0.3-0.5,0.5-1,0.7-1.5
			c0-0.1,0.1-0.2,0.1-0.2c0.2-0.5,0.5-1.1,0.7-1.6c0,0,0-0.1,0.1-0.1c0.1-0.2,0.1-0.3,0.2-0.5l25.8-63.4
			C537.8,428.6,537.9,428.2,538.1,427.9z"/>
		<g class="st2">
			<defs>
				<path id="SVGID_9_" class="st2" d="M258.2,241c22.2,77.4,44.4,154.8,66.6,232.2l-34.3,84.1C268.4,480,246.2,402.6,224,325.1
					C234.2,299.9,248,266.3,258.2,241z"/>
			</defs>
			<clipPath id="SVGID_10_">
				<use xlink:href="#SVGID_9_"  style="overflow:visible;"/>
			</clipPath>
			<g class="st11">
				<path class="st3" d="M258.2,241L224,325.1c22.2,77.4,44.4,154.8,66.6,232.2l34.3-84.1C302.7,395.8,280.5,318.4,258.2,241"/>
			</g>
		</g>
		<g class="st2">
			<defs>
				<path id="SVGID_11_" class="st2" d="M210.2,406.7c16.3,17.6,35.3,32.1,55.9,43.4l-34.3,84.1c-20.6-11.3-39.6-25.8-55.9-43.4
					C186.2,465.6,199.9,432,210.2,406.7z"/>
			</defs>
			<clipPath id="SVGID_12_">
				<use xlink:href="#SVGID_11_"  style="overflow:visible;"/>
			</clipPath>
			<g class="st12">
				<path class="st3" d="M210.2,406.7l-34.3,84.1c16.3,17.6,35.3,32.1,55.9,43.4l34.3-84.1C245.5,438.8,226.5,424.4,210.2,406.7"/>
			</g>
		</g>
		<g class="st2">
			<defs>
				<path id="SVGID_13_" class="st2" d="M212,413l-34.3,84.1c-0.6-2.1-1.2-4.2-1.8-6.3l34.3-84.1C210.8,408.8,211.4,410.9,212,413z"
					/>
			</defs>
			<clipPath id="SVGID_14_">
				<use xlink:href="#SVGID_13_"  style="overflow:visible;"/>
			</clipPath>
			<g class="st13">
				<path class="st3" d="M212,413l-34.3,84.1c-0.6-2.1-1.2-4.2-1.8-6.3l34.3-84.1C210.8,408.8,211.4,410.9,212,413"/>
			</g>
		</g>
		<g class="st2">
			<defs>
				<path id="SVGID_15_" class="st2" d="M393,481.6c0.9,3.1,1.8,6.2,2.7,9.4l-34.3,84.1c-0.9-3.1-1.8-6.2-2.7-9.4
					C369,540.5,382.7,506.8,393,481.6z"/>
			</defs>
			<clipPath id="SVGID_16_">
				<use xlink:href="#SVGID_15_"  style="overflow:visible;"/>
			</clipPath>
			<g class="st14">
				<path class="st3" d="M393,481.6l-34.3,84.1c0.9,3.1,1.8,6.2,2.7,9.4l34.3-84.1C394.8,487.8,393.9,484.7,393,481.6"/>
			</g>
		</g>
		<path class="st9" d="M393,481.6c-0.8,0-1.6,0-2.4,0c-1.4,0-2.8,0-4.2,0c-0.5,0-0.9,0-1.4,0c-0.9,0-1.9,0-2.8-0.1
			c-0.5,0-1,0-1.4-0.1c-1,0-2-0.1-3-0.1c-0.6,0-1.1-0.1-1.7-0.1c-0.9-0.1-1.8-0.1-2.7-0.2c-0.6,0-1.2-0.1-1.8-0.1
			c-0.9-0.1-1.8-0.1-2.8-0.2c-0.6,0-1.2-0.1-1.8-0.2c-0.9-0.1-1.9-0.2-2.8-0.3c-0.6-0.1-1.1-0.1-1.7-0.2c-1.2-0.1-2.3-0.3-3.5-0.4
			c-0.4,0-0.7-0.1-1.1-0.1c-1.5-0.2-3-0.4-4.5-0.6c-0.4-0.1-0.7-0.1-1.1-0.2c-1.2-0.2-2.4-0.4-3.6-0.6c-0.5-0.1-1.1-0.2-1.6-0.3
			c-1-0.2-2.1-0.4-3.1-0.5c-0.5-0.1-1.1-0.2-1.6-0.3c-1.3-0.2-2.5-0.5-3.8-0.7c-0.4-0.1-0.7-0.1-1.1-0.2c-1.6-0.3-3.2-0.7-4.8-1
			c-0.9-0.2-1.7-0.4-2.6-0.6c-0.4-0.1-0.9-0.2-1.3-0.3c-1.3-0.3-2.6-0.6-3.9-1l-5.4,13.3c-0.9,2.1-1.7,4.2-2.6,6.4l-5.1,12.5
			c-0.6,1.4-1.1,2.7-1.7,4.1l-0.2,0.6c-2.2,5.3-4.4,10.7-6.5,16l-3,7.4c-3.4,8.4-6.7,16.5-9.8,23.9c1.3,0.3,2.6,0.7,3.9,1
			c0.4,0.1,0.9,0.2,1.3,0.3c0.8,0.2,1.5,0.4,2.3,0.5c0.1,0,0.2,0,0.3,0.1c1.6,0.4,3.2,0.7,4.8,1c0.4,0.1,0.7,0.1,1.1,0.2
			c1.3,0.3,2.5,0.5,3.8,0.7c0.2,0,0.5,0.1,0.7,0.1c0.3,0.1,0.6,0.1,0.9,0.2c1,0.2,2.1,0.4,3.1,0.5c0.5,0.1,1.1,0.2,1.6,0.3
			c1.2,0.2,2.4,0.4,3.6,0.6c0.3,0,0.6,0.1,0.9,0.1c0.1,0,0.1,0,0.2,0c1.5,0.2,3,0.4,4.5,0.6c0.3,0,0.7,0.1,1,0.1
			c1.2,0.1,2.3,0.3,3.5,0.4c0.2,0,0.3,0,0.5,0.1c0.4,0,0.8,0.1,1.2,0.1c0.9,0.1,1.9,0.2,2.8,0.3c0.6,0.1,1.2,0.1,1.8,0.2
			c0.9,0.1,1.8,0.2,2.8,0.2c0.3,0,0.7,0.1,1,0.1c0.3,0,0.5,0,0.8,0c0.9,0.1,1.8,0.1,2.7,0.2c0.6,0,1.1,0.1,1.7,0.1c1,0,2,0.1,3,0.1
			c0.4,0,0.8,0,1.2,0c0.1,0,0.2,0,0.3,0c0.9,0,1.9,0.1,2.8,0.1c0.5,0,0.9,0,1.4,0c1.4,0,2.8,0,4.2,0c0.2,0,0.4,0,0.5,0
			c0.6,0,1.2,0,1.8,0c0,0,0,0,0,0v0h0L393,481.6z"/>
		<path d="M554,382.4c-0.1,0-0.2,0-0.3,0c-0.1,0-0.2,0-0.3,0c-0.1,0-0.3,0-0.4,0c-0.1,0-0.2,0-0.3,0c-0.2,0-0.4,0-0.7,0
			c-0.1,0-0.1,0-0.2,0l-5.7,14c-0.5,1.3-1.1,2.6-1.6,3.9l-6.2,15.3c-0.2,0.4-0.3,0.8-0.5,1.2l-1.7,4.1c-0.3,0.6-0.5,1.3-0.8,1.9
			l-3.9,9.5c-0.1,0.3-0.2,0.6-0.4,0.9l-4.6,11.4c-0.2,0.5-0.4,1-0.6,1.6c-0.7,0.6-1.4,1.1-2.1,1.6c-0.2,0.1-0.4,0.3-0.6,0.4
			c-1,0.7-1.9,1.3-2.9,1.8c-0.3,0.2-0.6,0.4-1,0.5c-0.8,0.4-1.5,0.8-2.3,1.2c-0.2,0.1-0.5,0.2-0.7,0.3c-0.9,0.4-1.9,0.8-2.8,1.1
			c-0.1,0-0.2,0.1-0.3,0.1c-1,0.3-2.1,0.6-3.1,0.8c-1,0.2-2,0.4-3,0.5c0,0-0.1,0-0.1,0c-1,0.1-2,0.2-3,0.2c-0.8,0-1.5,0-2.3-0.1
			c-0.1,0-0.1,0-0.2,0c-0.7-0.1-1.4-0.2-2.1-0.3c-0.1,0-0.2,0-0.2,0c-0.7-0.1-1.4-0.3-2.1-0.4c-0.1,0-0.2-0.1-0.3-0.1
			c-0.7-0.2-1.3-0.4-2-0.6c-0.2-0.1-0.4-0.2-0.7-0.2c-0.4-0.2-0.9-0.3-1.3-0.5c-1.1-0.5-2.2-1-3.2-1.6c-0.2-0.1-0.4-0.2-0.6-0.3
			c-1.1-0.6-2.2-1.3-3.3-2.1c-7.4-5.3-14.3-13.7-20.3-24.6c-6-10.9-11.8-24.2-17.5-39.8c-6.7-18.7-13.5-37.5-20.3-56.5
			c-7.5-20.8-16-36.9-25.7-48.7c-9.7-11.7-19.7-20.6-30-26.3c-1.7-0.9-3.3-1.8-5-2.6c-0.4-0.2-0.9-0.4-1.3-0.6c-1.5-0.7-3-1.4-4.5-2
			c-0.1-0.1-0.3-0.1-0.4-0.2c0,0-0.1,0-0.1,0c-1.5-0.6-3.1-1.2-4.6-1.7c-0.1,0-0.3-0.1-0.4-0.2c-0.4-0.1-0.9-0.3-1.3-0.4
			c-0.6-0.2-1.3-0.4-1.9-0.6c-0.2-0.1-0.4-0.1-0.6-0.2c-0.6-0.2-1.2-0.3-1.7-0.4c-0.4-0.1-0.7-0.2-1.1-0.3c-0.1,0-0.2-0.1-0.3-0.1
			c-0.9-0.2-1.8-0.4-2.7-0.6c-0.1,0-0.2,0-0.2,0c-0.2,0-0.4-0.1-0.6-0.1c-0.5-0.1-1.1-0.2-1.6-0.3c-0.5-0.1-1.1-0.1-1.6-0.2
			c-1.3-0.2-2.6-0.3-3.9-0.4c-0.7-0.1-1.4-0.1-2.1-0.2c-0.6-0.1-1.1-0.1-1.6-0.2c-2-0.2-3.9-0.3-5.7-0.5c0,0-0.1,0-0.1,0
			c-0.1,0-0.1,0-0.2,0c-1.9-0.1-3.6-0.2-5.3-0.3c-0.2,0-0.5,0-0.7,0c-0.1,0-0.3,0-0.4,0c-1.7-0.1-3.3-0.1-4.8-0.1c-0.5,0-1,0-1.5,0
			c-2.7,0-5.3,0-8,0c-2.1,0-4.1,0-6.2,0c-3,0-6,0-8.9,0.1c-1.9,0-3.9,0-5.8,0c-3.3,0-6.5,0.1-9.7,0.1c-1.6,0-3.2,0-4.7,0.1
			c-4.8,0.1-9.5,0.1-14.1,0.2l-30.6,75c-24.8-86.5-49.6-172.9-74.4-259.4c-1.6,1.3-3.1,2.6-4.6,4c-0.5,0.4-0.9,0.9-1.4,1.4
			c-1,0.9-2,1.9-2.9,2.8c-0.6,0.6-1.1,1.2-1.6,1.7c-0.8,0.9-1.7,1.8-2.5,2.7c-0.6,0.6-1.1,1.3-1.6,2c-0.7,0.9-1.5,1.8-2.2,2.7
			c-0.5,0.7-1,1.5-1.5,2.2c-0.6,0.9-1.3,1.8-1.9,2.7c-0.5,0.8-1,1.5-1.4,2.3c-0.6,0.9-1.2,1.9-1.7,2.8c-0.5,0.8-0.9,1.6-1.3,2.5
			c-0.5,1-1.1,1.9-1.5,2.9c-0.4,0.9-0.8,1.7-1.2,2.6c-0.4,0.9-0.8,1.7-1.2,2.6c-0.1,0.3-0.2,0.5-0.3,0.8l-2,4.9c-0.6-2-1.2-4-1.7-6
			l-34.3,84.1c0.6,2.1,1.2,4.2,1.8,6.3l3.8-9.3c0.3-0.6,0.5-1.2,0.8-1.9c0.5-1,1-1.9,1.5-2.9c0.4-0.8,0.9-1.7,1.3-2.5
			c0.5-1,1.1-1.9,1.7-2.8c0.5-0.8,0.9-1.6,1.4-2.3c0.6-0.9,1.3-1.8,1.9-2.7c0.5-0.7,1-1.5,1.6-2.2c0.7-0.9,1.4-1.8,2.1-2.7
			c0.5-0.7,1.1-1.4,1.6-2c0.8-0.9,1.6-1.8,2.4-2.6c0.6-0.6,1.1-1.2,1.6-1.8c0.9-1,1.9-1.9,2.9-2.8c0.5-0.5,0.9-0.9,1.4-1.4
			c1.5-1.4,3-2.7,4.6-4c28.1,97.9,56.2,195.8,84.3,293.8l-25.5,62.6c1.5,1.7,3,3.3,4.5,4.9c0.5,0.6,1.1,1.1,1.6,1.6
			c1,1,2,2.1,3.1,3.1c0.6,0.6,1.3,1.2,1.9,1.8c1,0.9,1.9,1.9,2.9,2.8c0.7,0.6,1.4,1.3,2.1,1.9c0.9,0.8,1.9,1.7,2.8,2.5
			c0.7,0.6,1.5,1.3,2.3,1.9c0.9,0.8,1.8,1.6,2.8,2.3c0.8,0.6,1.6,1.3,2.4,1.9c0.9,0.7,1.8,1.5,2.8,2.2c0.8,0.6,1.6,1.2,2.4,1.8
			c0.9,0.7,1.9,1.4,2.8,2.1c0.8,0.6,1.7,1.2,2.5,1.8c0.9,0.7,1.9,1.3,2.8,2c0.8,0.6,1.7,1.1,2.6,1.7c0.9,0.6,1.9,1.3,2.9,1.9
			c0.9,0.6,1.7,1.1,2.6,1.7c1,0.6,1.9,1.2,2.9,1.8c0.9,0.5,1.8,1.1,2.7,1.6c1,0.6,1.9,1.2,2.9,1.7c0.9,0.5,1.8,1,2.7,1.5
			c1,0.5,2,1.1,2.9,1.6c0.9,0.5,1.8,1,2.8,1.4c1,0.5,2,1,3,1.5c0.9,0.5,1.9,0.9,2.8,1.4c1,0.5,2,1,3,1.4c0.9,0.4,1.9,0.9,2.8,1.3
			c1,0.5,2,0.9,3,1.4c0.9,0.4,1.9,0.8,2.9,1.2c1,0.4,2,0.9,3.1,1.3c0.3,0.1,0.6,0.2,0.8,0.3c0.5,0.2,0.9,0.4,1.4,0.5
			c1.7,0.7,3.3,1.3,5,1.9c0.8,0.3,1.5,0.6,2.3,0.8c1.8,0.7,3.7,1.3,5.5,1.9c0.4,0.1,0.8,0.3,1.2,0.4c0.1,0,0.3,0.1,0.4,0.1
			c1.2,0.4,2.5,0.8,3.7,1.2c0.8,0.3,1.6,0.5,2.4,0.8c1.4,0.4,2.8,0.8,4.2,1.2c0.6,0.2,1.3,0.4,1.9,0.5c0,0,0.1,0,0.1,0
			c3.4,0.9,6.8,1.8,10.3,2.6c0.3,0.1,0.5,0.1,0.8,0.2c0.1,0,0.3,0.1,0.4,0.1c3,0.7,6,1.3,9,1.9c0.3,0.1,0.6,0.1,0.9,0.2
			c0.3,0.1,0.7,0.1,1,0.2c2.9,0.5,5.8,1,8.7,1.4c0.1,0,0.1,0,0.2,0c0.2,0,0.5,0.1,0.7,0.1c2.6,0.4,5.1,0.7,7.7,1
			c0.4,0,0.7,0.1,1.1,0.1c0.3,0,0.5,0,0.8,0.1c2.7,0.3,5.4,0.5,8.1,0.7c0.1,0,0.2,0,0.3,0c0.3,0,0.6,0,1,0c2.3,0.2,4.6,0.3,6.9,0.4
			c0.4,0,0.8,0,1.2,0.1c0.3,0,0.6,0,0.9,0c2.5,0.1,5,0.1,7.5,0.1c0.2,0,0.3,0,0.5,0c0.6,0,1.2,0,1.8,0l34.3-84.1c-0.8,0-1.5,0-2.3,0
			c-2.5,0-5-0.1-7.5-0.1c-0.7,0-1.4,0-2-0.1c-2.3-0.1-4.6-0.2-6.9-0.4c-0.4,0-0.8,0-1.3-0.1c-2.7-0.2-5.4-0.4-8.1-0.7
			c-0.6-0.1-1.3-0.1-1.9-0.2c-2.6-0.3-5.1-0.6-7.7-1c-0.3,0-0.6-0.1-0.9-0.1c-2.9-0.4-5.8-0.9-8.7-1.4c-0.6-0.1-1.2-0.2-1.9-0.3
			c-3-0.6-6-1.2-9-1.9c-0.4-0.1-0.8-0.2-1.3-0.3c-3.4-0.8-6.9-1.6-10.3-2.6c-0.7-0.2-1.3-0.4-2-0.6c-1.4-0.4-2.8-0.8-4.2-1.2
			c-0.8-0.2-1.6-0.5-2.4-0.8c-1.2-0.4-2.5-0.8-3.7-1.2c-0.5-0.2-1.1-0.4-1.6-0.5c-1.8-0.6-3.7-1.3-5.5-1.9c-0.8-0.3-1.5-0.6-2.3-0.8
			c-1.7-0.6-3.3-1.3-5-1.9c-0.7-0.3-1.5-0.6-2.2-0.9c-1-0.4-2-0.9-3.1-1.3c-0.9-0.4-1.9-0.8-2.8-1.2c-1-0.4-2-0.9-3-1.4
			c-0.9-0.4-1.9-0.9-2.8-1.3c-1-0.5-2-1-3-1.4c-0.9-0.5-1.9-0.9-2.8-1.4c-1-0.5-2-1-3-1.5c-0.9-0.5-1.8-0.9-2.7-1.4
			c-1-0.5-2-1.1-3-1.6c-0.9-0.5-1.8-1-2.7-1.5c-1-0.6-2-1.1-2.9-1.7c-0.4-0.2-0.8-0.5-1.2-0.7l2.2-5.4
			c-12-41.7-23.9-83.4-35.9-125.1c2.6,0,5.1-0.1,7.8-0.1c1.8,0,3.6,0,5.4-0.1c3,0,6-0.1,9-0.1c2,0,4.1,0,6.1,0c2.9,0,5.7,0,8.6-0.1
			c2.2,0,4.5,0,6.7,0c3,0,6,0,9,0c1.7,0,3.4,0,5.2,0.1c0.2,0,0.5,0,0.7,0c1.7,0.1,3.5,0.2,5.3,0.3c0.1,0,0.2,0,0.2,0
			c1.9,0.1,3.8,0.3,5.8,0.5c0.5,0.1,1.1,0.1,1.7,0.2c1.9,0.2,3.9,0.4,6,0.6c1.1,0.1,2.1,0.3,3.2,0.5c0.2,0,0.4,0.1,0.6,0.1
			c1.1,0.2,2.2,0.4,3.3,0.7c0.4,0.1,0.7,0.2,1.1,0.3c0.8,0.2,1.5,0.4,2.3,0.6c0.6,0.2,1.3,0.4,1.9,0.6c0.6,0.2,1.2,0.4,1.7,0.6
			c1.5,0.5,3.1,1.1,4.6,1.7c0.2,0.1,0.4,0.2,0.5,0.2c1.5,0.6,3,1.3,4.5,2c0.4,0.2,0.9,0.4,1.3,0.6c1.7,0.8,3.3,1.7,5,2.6
			c10.3,5.7,20.3,14.6,30,26.3c9.7,11.8,18.2,27.9,25.7,48.7c6.8,19,13.5,37.8,20.3,56.5c5.6,15.6,11.5,28.9,17.5,39.8
			c6,10.9,12.8,19.2,20.3,24.6c1.1,0.8,2.2,1.4,3.3,2.1c0.2,0.1,0.4,0.2,0.6,0.3c1.1,0.6,2.1,1.1,3.2,1.6c0.1,0,0.2,0.1,0.3,0.1
			c0.3,0.1,0.7,0.3,1,0.4c0.2,0.1,0.4,0.2,0.7,0.2c0.1,0,0.1,0.1,0.2,0.1c0.5,0.2,1,0.3,1.5,0.4c0.1,0,0.2,0.1,0.3,0.1
			c0.1,0,0.2,0.1,0.3,0.1c0.2,0.1,0.4,0.1,0.6,0.2c0.4,0.1,0.8,0.2,1.2,0.2c0.1,0,0.2,0,0.3,0c0.1,0,0.2,0,0.2,0
			c0.2,0,0.4,0.1,0.6,0.1c0.3,0.1,0.7,0.1,1.1,0.1c0.2,0,0.3,0,0.5,0c0.1,0,0.1,0,0.2,0c0.1,0,0.2,0,0.3,0c0.3,0,0.7,0,1,0.1
			c0.3,0,0.6,0,1,0c0,0,0,0,0.1,0c0.3,0,0.7,0,1,0c0.4,0,0.7,0,1.1-0.1c0.3,0,0.5,0,0.8-0.1c0,0,0.1,0,0.1,0c0.1,0,0.1,0,0.2,0
			c0.4,0,0.8-0.1,1.2-0.2c0.4-0.1,0.8-0.1,1.2-0.2c0.1,0,0.3-0.1,0.4-0.1c0.3-0.1,0.6-0.1,0.9-0.2c0.4-0.1,0.9-0.2,1.4-0.4
			c0.3-0.1,0.6-0.2,0.9-0.3c0.1,0,0.2-0.1,0.3-0.1c0.1,0,0.2-0.1,0.4-0.1c0.6-0.2,1.2-0.4,1.8-0.7c0.2-0.1,0.5-0.2,0.7-0.3
			c0.2-0.1,0.5-0.2,0.7-0.3c0.3-0.1,0.5-0.2,0.8-0.3c0.5-0.2,1-0.5,1.5-0.8c0.3-0.2,0.7-0.3,1-0.5c0.1-0.1,0.2-0.1,0.3-0.2
			c0.8-0.5,1.7-1.1,2.6-1.7c0.2-0.1,0.4-0.3,0.6-0.4c0.3-0.2,0.6-0.4,0.9-0.7c0.4-0.3,0.8-0.6,1.2-1c0.4-0.4,0.9-0.7,1.3-1.1
			c0.6-0.6,1.3-1.2,1.9-1.8c0.4-0.4,0.8-0.8,1.3-1.2c0.7-0.7,1.4-1.5,2.1-2.2c0.3-0.4,0.7-0.7,1-1.1c1-1.2,2.1-2.5,3.1-3.8
			c4.5-5.9,7.6-11.7,9.9-17c0.1-0.2,0.2-0.4,0.2-0.6c0.1-0.2,0.2-0.5,0.3-0.7c0,0,0,0,0,0l0,0c0,0,0,0,0,0l1.6-3.9
			c0.3-0.7,0.6-1.4,0.9-2.2l0.8-2c0.7-1.8,1.5-3.7,2.3-5.6l3.4-8.4c0.1-0.4,0.3-0.7,0.4-1.1l4.9-12.1l1.6-3.8
			c0.1-0.1,0.1-0.3,0.2-0.4l9.7-23.9c0.1-0.3,0.3-0.7,0.4-1l2-5l2.5-6c1.2-3,2.4-5.9,3.5-8.7c2-4.8,3.3-9.3,4.3-13.3
			c1.1-4.4,1.8-8.4,2.2-11.7c0.2-1.7,0.4-3.3,0.6-4.8c0.2-1.5,0.3-3,0.4-4.3C554.4,382.3,554.2,382.3,554,382.4z"/>
		<g>
			<path class="st15" d="M551.8,382.5c1,0,1.9-0.1,2.8-0.2c-0.2,2.7-0.6,5.7-1,9.1c-0.4,3.4-1.1,7.3-2.2,11.7
				c-1.1,4.4-2.6,9.4-4.9,14.7c-2.2,5.3-5.4,11.1-9.9,17c-8.5,11.3-17.9,17.4-26.4,19.2c-2.1,0.4-4.1,0.6-6.1,0.6
				c-6.4,0-12.6-2.2-18.3-6.3c-7.4-5.3-14.3-13.7-20.3-24.6c-6-10.9-11.8-24.2-17.5-39.8c-6.7-18.7-13.5-37.5-20.3-56.5
				c-7.5-20.8-16-36.9-25.7-48.7c-9.7-11.7-19.7-20.6-30-26.3c-10.3-5.7-20.4-9.2-30-10.3c-9.7-1.1-18-1.7-24.9-1.7
				c-20.3,0-40.2,0.2-58.9,0.5c22.2,77.4,44.4,154.8,66.6,232.2c21.8,5.6,44,8.4,65.8,8.4c0.8,0,1.6,0,2.4,0
				c0.9,3.1,1.8,6.2,2.7,9.4c-0.8,0-1.5,0-2.3,0c-64.6,0-134.1-25.4-181.4-77.9c-0.6-2.1-1.2-4.2-1.8-6.3
				c16.3,17.6,35.3,32.1,55.9,43.4c-37.6-131.2-75.3-262.3-112.9-393.5c-14.1,11.5-24.8,26.1-30.9,43.9c-0.6-2.1-1.2-4.2-1.8-6.3
				c10.1-31.8,33.8-53.7,64.9-66.2c3.9-1.6,8-3.1,12.1-4.6c4.1-1.5,8.3-3,12.5-4.4c4.4-1,8.8-1.9,13.3-2.8c4.5-0.9,9.1-1.6,13.8-2
				c4.5-0.4,9-0.6,13.4-0.6c18.3,0,36,3.1,52,8c19.9,6.1,40.3,19.2,60.3,37.3c17.8,15.9,31.3,31.9,40.8,47.1
				c9.5,15.3,15.7,28.2,18.9,39.5c1.6,5.7,2.7,12.6,3.2,21.1c0.5,8.5-1.3,16.7-5.5,25.3c-4.2,8.6-11.8,16.6-23.1,24.4
				c-11.3,7.8-28.3,13.3-51.1,16.1c0.1,0.5,0.3,0.9,0.4,1.3c6.8,1,16.1,2.7,27.9,5.3c11.8,2.6,24,6.7,36.6,12.2
				c12.5,5.5,24.3,12.4,35.2,20.5c10.9,8.1,19.5,18,26.4,30.1c4.1,7.1,7.8,15.2,11.2,24.3c3.4,9.1,6.8,18.5,10,28.1
				c3.3,9.6,6.4,18.9,9.4,27.7c3,8.8,6,15.9,8.8,21.2c4.3,8.2,9.1,14.5,14.3,18.6c1.7,1.4,3.5,2.1,5.3,2.1c3.6,0,7.4-2.8,11-8.5
				c2.4-3.8,4.4-8.7,6.2-14.5C550.3,395.1,551.3,388.9,551.8,382.5z M309.6,231.2c11.3,0,21.3-1.6,29.8-4.6c8.5-3,15-8.3,19.5-15.7
				c4.5-7.4,6.7-17.4,6.7-30.1c0-12.7-2.9-28.7-8.5-48.4c-6.4-22.2-14.3-40.6-23.9-55.3c-9.6-14.6-20-26.3-31-34.5
				c-11.1-8.2-22.5-13.9-34-16.4c-8.3-1.8-16.2-2.8-23.8-2.8c-3,0-5.9,0.1-8.7,0.4c-7,0.7-13.9,1.8-20.6,3.4
				c-6.7,1.6-12.1,3.7-16.4,5.9c19,66.3,38,132.5,57,198.8C272.8,231.5,291,231.2,309.6,231.2"/>
		</g>
	</g>
</g>
</svg>
